<mxfile host="Electron" agent="Mozilla/5.0 (Macintosh; Intel Mac OS X 10_15_7) AppleWebKit/537.36 (KHTML, like Gecko) draw.io/26.2.2 Chrome/134.0.6998.178 Electron/35.1.2 Safari/537.36" version="26.2.2">
  <diagram name="Page-1" id="w1FYISVXkmo7MJKRt9TU">
    <mxGraphModel dx="975" dy="750" grid="1" gridSize="10" guides="1" tooltips="1" connect="1" arrows="1" fold="1" page="1" pageScale="1" pageWidth="850" pageHeight="1100" math="0" shadow="0">
      <root>
        <mxCell id="0" />
        <mxCell id="1" parent="0" />
        <mxCell id="sckalah5oV4s6a0QUd7G-25" value="" style="rounded=0;whiteSpace=wrap;html=1;" vertex="1" parent="1">
          <mxGeometry x="30" y="50" width="900" height="520" as="geometry" />
        </mxCell>
        <mxCell id="sckalah5oV4s6a0QUd7G-23" value="&lt;font color=&quot;#5a6c86&quot;&gt;Data Governance&lt;/font&gt;&lt;div&gt;&lt;font color=&quot;#5a6c86&quot;&gt;in AWS&lt;/font&gt;&lt;/div&gt;" style="fillColor=#EFF0F3;strokeColor=none;dashed=0;verticalAlign=top;fontStyle=1;fontColor=#232F3D;whiteSpace=wrap;html=1;" vertex="1" parent="1">
          <mxGeometry x="760" y="80" width="130" height="462" as="geometry" />
        </mxCell>
        <mxCell id="sckalah5oV4s6a0QUd7G-21" value="&lt;span style=&quot;color: rgb(90, 108, 134);&quot;&gt;OpenLineage Proxy&lt;/span&gt;" style="fillColor=#EFF0F3;strokeColor=none;dashed=0;verticalAlign=top;fontStyle=1;fontColor=#232F3D;whiteSpace=wrap;html=1;" vertex="1" parent="1">
          <mxGeometry x="250" y="220" width="450" height="200" as="geometry" />
        </mxCell>
        <mxCell id="sckalah5oV4s6a0QUd7G-19" value="&lt;span style=&quot;color: rgb(90, 108, 134);&quot;&gt;OpenLineage&lt;/span&gt;&lt;div style=&quot;color: rgb(90, 108, 134);&quot;&gt;Compatible Tools&lt;/div&gt;" style="fillColor=#EFF0F3;strokeColor=none;dashed=0;verticalAlign=top;fontStyle=1;fontColor=#232F3D;whiteSpace=wrap;html=1;" vertex="1" parent="1">
          <mxGeometry x="60" y="78" width="130" height="462" as="geometry" />
        </mxCell>
        <mxCell id="sckalah5oV4s6a0QUd7G-8" style="edgeStyle=orthogonalEdgeStyle;rounded=0;orthogonalLoop=1;jettySize=auto;html=1;" edge="1" parent="1" source="sckalah5oV4s6a0QUd7G-3" target="sckalah5oV4s6a0QUd7G-4">
          <mxGeometry relative="1" as="geometry" />
        </mxCell>
        <mxCell id="sckalah5oV4s6a0QUd7G-3" value="Amazon&lt;div&gt;API Gateway&lt;/div&gt;" style="sketch=0;points=[[0,0,0],[0.25,0,0],[0.5,0,0],[0.75,0,0],[1,0,0],[0,1,0],[0.25,1,0],[0.5,1,0],[0.75,1,0],[1,1,0],[0,0.25,0],[0,0.5,0],[0,0.75,0],[1,0.25,0],[1,0.5,0],[1,0.75,0]];outlineConnect=0;fontColor=#232F3E;fillColor=#8C4FFF;strokeColor=#ffffff;dashed=0;verticalLabelPosition=bottom;verticalAlign=top;align=center;html=1;fontSize=12;fontStyle=1;aspect=fixed;shape=mxgraph.aws4.resourceIcon;resIcon=mxgraph.aws4.api_gateway;" vertex="1" parent="1">
          <mxGeometry x="280" y="270" width="78" height="78" as="geometry" />
        </mxCell>
        <mxCell id="sckalah5oV4s6a0QUd7G-9" style="edgeStyle=orthogonalEdgeStyle;rounded=0;orthogonalLoop=1;jettySize=auto;html=1;" edge="1" parent="1" source="sckalah5oV4s6a0QUd7G-4" target="sckalah5oV4s6a0QUd7G-5">
          <mxGeometry relative="1" as="geometry" />
        </mxCell>
        <mxCell id="sckalah5oV4s6a0QUd7G-4" value="Amazon&lt;div&gt;SQS&lt;/div&gt;" style="sketch=0;points=[[0,0,0],[0.25,0,0],[0.5,0,0],[0.75,0,0],[1,0,0],[0,1,0],[0.25,1,0],[0.5,1,0],[0.75,1,0],[1,1,0],[0,0.25,0],[0,0.5,0],[0,0.75,0],[1,0.25,0],[1,0.5,0],[1,0.75,0]];outlineConnect=0;fontColor=#232F3E;fillColor=#E7157B;strokeColor=#ffffff;dashed=0;verticalLabelPosition=bottom;verticalAlign=top;align=center;html=1;fontSize=12;fontStyle=1;aspect=fixed;shape=mxgraph.aws4.resourceIcon;resIcon=mxgraph.aws4.sqs;" vertex="1" parent="1">
          <mxGeometry x="436" y="270" width="78" height="78" as="geometry" />
        </mxCell>
        <mxCell id="sckalah5oV4s6a0QUd7G-11" style="edgeStyle=orthogonalEdgeStyle;rounded=0;orthogonalLoop=1;jettySize=auto;html=1;" edge="1" parent="1" source="sckalah5oV4s6a0QUd7G-5" target="sckalah5oV4s6a0QUd7G-7">
          <mxGeometry relative="1" as="geometry" />
        </mxCell>
        <mxCell id="sckalah5oV4s6a0QUd7G-5" value="AWS&lt;div&gt;Lambda&lt;/div&gt;" style="sketch=0;points=[[0,0,0],[0.25,0,0],[0.5,0,0],[0.75,0,0],[1,0,0],[0,1,0],[0.25,1,0],[0.5,1,0],[0.75,1,0],[1,1,0],[0,0.25,0],[0,0.5,0],[0,0.75,0],[1,0.25,0],[1,0.5,0],[1,0.75,0]];outlineConnect=0;fontColor=#232F3E;fillColor=#ED7100;strokeColor=#ffffff;dashed=0;verticalLabelPosition=bottom;verticalAlign=top;align=center;html=1;fontSize=12;fontStyle=1;aspect=fixed;shape=mxgraph.aws4.resourceIcon;resIcon=mxgraph.aws4.lambda;" vertex="1" parent="1">
          <mxGeometry x="590" y="270" width="78" height="78" as="geometry" />
        </mxCell>
        <mxCell id="sckalah5oV4s6a0QUd7G-6" value="Amazon&lt;div&gt;DataZone&lt;/div&gt;" style="sketch=0;points=[[0,0,0],[0.25,0,0],[0.5,0,0],[0.75,0,0],[1,0,0],[0,1,0],[0.25,1,0],[0.5,1,0],[0.75,1,0],[1,1,0],[0,0.25,0],[0,0.5,0],[0,0.75,0],[1,0.25,0],[1,0.5,0],[1,0.75,0]];outlineConnect=0;fontColor=#232F3E;fillColor=#8C4FFF;strokeColor=#ffffff;dashed=0;verticalLabelPosition=bottom;verticalAlign=top;align=center;html=1;fontSize=12;fontStyle=1;aspect=fixed;shape=mxgraph.aws4.resourceIcon;resIcon=mxgraph.aws4.datazone;" vertex="1" parent="1">
          <mxGeometry x="790" y="180" width="78" height="78" as="geometry" />
        </mxCell>
        <mxCell id="sckalah5oV4s6a0QUd7G-7" value="Amazon&lt;div&gt;SageMaker&lt;/div&gt;&lt;div&gt;Unified Studio&lt;/div&gt;" style="sketch=0;points=[[0,0,0],[0.25,0,0],[0.5,0,0],[0.75,0,0],[1,0,0],[0,1,0],[0.25,1,0],[0.5,1,0],[0.75,1,0],[1,1,0],[0,0.25,0],[0,0.5,0],[0,0.75,0],[1,0.25,0],[1,0.5,0],[1,0.75,0]];outlineConnect=0;fontColor=#232F3E;fillColor=#01A88D;strokeColor=#ffffff;dashed=0;verticalLabelPosition=bottom;verticalAlign=top;align=center;html=1;fontSize=12;fontStyle=1;aspect=fixed;shape=mxgraph.aws4.resourceIcon;resIcon=mxgraph.aws4.sagemaker;" vertex="1" parent="1">
          <mxGeometry x="790" y="348" width="78" height="78" as="geometry" />
        </mxCell>
        <mxCell id="sckalah5oV4s6a0QUd7G-10" style="edgeStyle=orthogonalEdgeStyle;rounded=0;orthogonalLoop=1;jettySize=auto;html=1;entryX=0;entryY=0.5;entryDx=0;entryDy=0;entryPerimeter=0;" edge="1" parent="1" source="sckalah5oV4s6a0QUd7G-5" target="sckalah5oV4s6a0QUd7G-6">
          <mxGeometry relative="1" as="geometry" />
        </mxCell>
        <mxCell id="sckalah5oV4s6a0QUd7G-15" value="Apache&#xa;Spark" style="shape=image;verticalLabelPosition=bottom;labelBackgroundColor=default;verticalAlign=top;aspect=fixed;imageAspect=0;editableCssRules=.*;image=data:image/svg+xml,PHN2ZyB4bWxucz0iaHR0cDovL3d3dy53My5vcmcvMjAwMC9zdmciIHZpZXdCb3g9IjEuNDYyMTAzMzY2ODUxODA2NiAwLjAwMTA1OTI5Mzc0Njk0ODI0MjIgMTI1LjA3NjU0NTcxNTMzMjAzIDEyNy45OTgyMzc2MDk4NjMyOCIgd2lkdGg9IjEyNS4wNzY1NDU3MTUzMzIwMyIgaGVpZ2h0PSIxMjcuOTk4MjM3NjA5ODYzMjgiPjxwYXRoIGQ9Ik01Ny42NDYuMDA0Yy0yLjI2OS4wNjQtNC41MSAxLjE0My02LjM4NCAzLjIyMy0xLjAzIDEuMTQ2LTEuOTA1IDIuNTEtMi42MyAzLjg1NS0xLjg5IDMuNTQtMi4yNjIgNy41NDctMi45NjIgMTEuNDNsLTMuODUyIDIxLjgxYy0uMTQ4Ljg1Ni0uNTMyIDEuMjEtMS4zIDEuNDU1bC0yOC4yNjggOC45OGMtMi4wNi42NzMtNC4xMjUgMS41NDMtNS45NDcgMi43LTUuNTU4IDMuNTMtNi4zOCA5LjMzOC0yLjIwNyAxNC40MzggMS44NDIgMi4yNTYgNC4yMTYgMy44NDMgNi44NSA0Ljk5NmwxNy42MDMgNy44NDNjLjE0Ny4wOC4zMDQuMTMyLjQ2My4xNjJsMy43MTcgMi42ODJzLTMuNyA0MC45NDggMy4yNDYgNDMuNzgxYy0uMDYxLS4wMS0uNDEtLjA4Mi0uNDEtLjA4MnMuNzA0Ljc2MSAyLjYwMy41MzdjMS40NTQuMjcgMS4yNjIuMjI2LjA3NC0uMDEgMi41ODMtLjMzNCA3LjMzNy0yLjQ5NyAxNS41NzgtMTAuNzg0YTQ3LjM5NiA0Ny4zOTYgMCAwIDAgMS43NzYtMS42NzZsMTcuOC0xOS4yMTcgNC4xNjMgMS40NjVjLjE1LjIwNy4zNjcuMzQuNzE0LjQ0M2wxOS44MjMgNi4wMzFjMi43MDkuODM2IDUuMzg5IDEuNDQ4IDguMjc3IDEuMDI2IDUuMTU2LS43NTUgOC45NTEtNSA4LjktMTAuMTkyLS4wMi0yLjI4LS44Mi00LjMzOS0xLjg3LTYuMzI0bC0xMy4xMjgtMjQuODk4Yy0uNDE4LS43ODctLjQwNS0xLjI5Ni4xOTYtMmwyMi4wNTQtMjUuOTIyYzEuNDI4LTEuNzAzIDIuNzE3LTMuNTI5IDMuNDY1LTUuNjQ1IDEuNjQzLTQuNjctLjQ4Mi04LjM4Mi01LjMzLTkuMjg5LTIuMjI5LS4zOTgtNC40MjctLjE4OC02LjYuMzg1bC0zMS41OTcgOC4zOTVjLS45My4yNS0xLjM5LjA3NS0xLjg5NS0uNzcybC0xMi45LTIxLjQzNGMtLjk3NS0xLjYxNS0yLjE0LTMuMTk0LTMuNDc3LTQuNTI3QzYyLjIxMi44OSA1OS45MTUtLjA1OSA1Ny42NDYuMDA0em0uOTQ0IDE5LjczNmMuNTEuMzU4Ljc2OC43MjcgMS4wMSAxLjEyNWwxMy44OCAyMy4xM2MuMzgyLjYyOC43MjUuODUgMS40ODUuNjQ4bDI0LjQ0My02LjQ5NyA1Ljg4NS0xLjU0Yy0uMDg3LjQ5My0uMzAyLjc5LS41MzcgMS4wNjhsLTIwLjE2IDIzLjY3MmMtLjU3LjY4OC0uNjIzIDEuMTctLjE5NCAxLjk3NmwxMi43NDMgMjQuMTYuNTg1IDEuMjM3LS4wMTUuMDItMjIuNzI3LTYuMjY0LS4wMDYtLjAxOC00LjI5OC0xLjIwNS0yNS40OTMgMjguMjU2IDQuNjYzLTM3LjE1LTQuMTg0LTEuODIuMDA4LS4wMDctMjMuNjc0LTkuNGMuNDU0LS40MTMuODYtLjU4NSAxLjI4NS0uNzE3bDI4Ljc3Ny05LjA5NmMuNjc2LS4yMSAxLjA2MS0uNDcgMS4xMjUtMS4yNDJsLjQwMy0yLjM1NSAzLjg3NS0yMS44MDcgMS4xMi02LjE3NHoiIGZpbGw9IiNlMTU5MTkiLz48L3N2Zz4=;fontStyle=1" vertex="1" parent="1">
          <mxGeometry x="85.46000000000001" y="130" width="78.13" height="80" as="geometry" />
        </mxCell>
        <mxCell id="sckalah5oV4s6a0QUd7G-16" value="Apache&#xa;Airflow" style="shape=image;verticalLabelPosition=bottom;labelBackgroundColor=default;verticalAlign=top;aspect=fixed;imageAspect=0;editableCssRules=.*;image=data:image/svg+xml,PHN2ZyB4bWxucz0iaHR0cDovL3d3dy53My5vcmcvMjAwMC9zdmciIHZpZXdCb3g9IjAuNDk2MzQ2NDE0MDg5MjAyOSAwLjQ5OTc0Mzk5ODA1MDY4OTcgMTI3LjAwMzQwMjcwOTk2MDk0IDEyNy4wMDE4NjE1NzIyNjU2MiIgd2lkdGg9IjEyNy4wMDM0MDI3MDk5NjA5NCIgaGVpZ2h0PSIxMjcuMDAxODYxNTcyMjY1NjIiPiYjeGE7PHBhdGggZmlsbD0iIzAxN2NlZSIgZD0ibTIuNTQ0MSAxMjcgNjAuODA5LTYyLjMzMmExLjEyNCAxLjEyNCAwIDAgMCAwLjEzNTktMS40MzY4Yy0zLjY5NzctNS4xNjI1LTEwLjUyMS02LjA1NzgtMTMuMDUtOS41MjY4LTcuNDkwMy0xMC4yNzUtOS4zOTA5LTE2LjA5Mi0xMi42MS0xNS43MzFhMC45ODM3NCAwLjk4Mzc0IDAgMCAwLTAuNTg0NjQgMC4zMDg1bC0yMS45NjYgMjIuNTE4Yy0xMi42MzggMTIuOTQ0LTE0LjQ1NCA0MS40NzUtMTQuNzgyIDY1LjM2N2ExLjE5MDggMS4xOTA4IDAgMCAwIDIuMDQ3MyAwLjgzMjczeiIvPiYjeGE7PHBhdGggZmlsbD0iIzAwYWQ0NiIgZD0ibTEyNi45OSAxMjUuNDYtNjIuMzMyLTYwLjgxM2ExLjEyNCAxLjEyNCAwIDAgMC0xLjQzODktMC4xMzU5Yy01LjE2MjUgMy42OTk4LTYuMDU3OCAxMC41MjEtOS41MjY4IDEzLjA1LTEwLjI3NSA3LjQ5MDMtMTYuMDkyIDkuMzkwOS0xNS43MzEgMTIuNjFhMC45ODM3NCAwLjk4Mzc0IDAgMCAwIDAuMzA4NSAwLjU4MjQ4bDIyLjUxOCAyMS45NjZjMTIuOTQ0IDEyLjYzOCA0MS40NzUgMTQuNDU0IDY1LjM2NyAxNC43ODJhMS4xOTA4IDEuMTkwOCAwIDAgMCAwLjgzNDg5LTIuMDQwOHoiLz4mI3hhOzxwYXRoIGZpbGw9IiMwNGQ2NTkiIGQ9Im02MC43OTIgMTEyLjcyYy03LjA3Ni02LjkwMzUtMTAuMzU1LTIwLjU1OSAzLjIwNTgtNDguNzE5LTIyLjA0NiA5Ljg1MjUtMjkuNzcxIDIyLjgwMy0yNS45NzIgMjYuNTExeiIvPiYjeGE7PHBhdGggZmlsbD0iIzAwYzdkNCIgZD0ibTEyNS40NSAxLjAxMTMtNjAuODA3IDYyLjMzMmExLjEyMTggMS4xMjE4IDAgMCAwLTAuMTM1OSAxLjQzNjhjMy42OTk4IDUuMTYyNSAxMC41MTkgNi4wNTc4IDEzLjA1IDkuNTI2OCA3LjQ5MDMgMTAuMjc1IDkuMzkzIDE2LjA5MiAxMi42MSAxNS43MzFhMC45Nzk0MyAwLjk3OTQzIDAgMCAwIDAuNTg0NjQtMC4zMDg1bDIxLjk2Ni0yMi41MThjMTIuNjM4LTEyLjk0NCAxNC40NTQtNDEuNDc1IDE0Ljc4Mi02NS4zNjdhMS4xOTMgMS4xOTMgMCAwIDAtMi4wNDk1LTAuODMyNzN6Ii8+JiN4YTs8cGF0aCBmaWxsPSIjMTFlMWVlIiBkPSJtMTEyLjczIDY3LjIxMWMtNi45MDM1IDcuMDc2LTIwLjU1OSAxMC4zNTUtNDguNzIxLTMuMjA1OCA5Ljg1MjUgMjIuMDQ2IDIyLjgwMyAyOS43NzEgMjYuNTExIDI1Ljk3MnoiLz4mI3hhOzxwYXRoIGZpbGw9IiNlNDM5MjEiIGQ9Im0xLjAwMTcgMi41NDk1IDYyLjMzMiA2MC44MDdhMS4xMjQgMS4xMjQgMCAwIDAgMS40MzY4IDAuMTM1OWM1LjE2MjUtMy42OTk4IDYuMDU3OC0xMC41MjEgOS41MjY4LTEzLjA1IDEwLjI3NS03LjQ5MDMgMTYuMDkyLTkuMzkwOSAxNS43MzEtMTIuNjFhMC45OTAyMiAwLjk5MDIyIDAgMCAwLTAuMzA4NS0wLjU4NDYzbC0yMi41MTgtMjEuOTY2Yy0xMi45NDQtMTIuNjM4LTQxLjQ3NS0xNC40NTQtNjUuMzY3LTE0Ljc4MmExLjE5MDggMS4xOTA4IDAgMCAwLTAuODMyNzMgMi4wNDk1eiIvPiYjeGE7PHBhdGggZmlsbD0iI2ZmNzU1NyIgZD0ibTY3LjIxMiAxNS4yODRjNy4wNzYgNi45MDM1IDEwLjM1NSAyMC41NTktMy4yMDU4IDQ4LjcyMSAyMi4wNDYtOS44NTI1IDI5Ljc3MS0yMi44MDUgMjUuOTcyLTI2LjUxMXoiLz4mI3hhOzxwYXRoIGZpbGw9IiMwY2I2ZmYiIGQ9Im0xNS4yNzkgNjAuOGM2LjkwMzUtNy4wNzYgMjAuNTU5LTEwLjM1NSA0OC43MjEgMy4yMDU4LTkuODUyNS0yMi4wNDYtMjIuODAzLTI5Ljc3MS0yNi41MTEtMjUuOTcyeiIvPiYjeGE7PGNpcmNsZSBmaWxsPSIjNGE0ODQ4IiByPSIyLjcxODIiIGN5PSI2My45OTUiIGN4PSI2NC4wMDkiLz4mI3hhOzwvc3ZnPg==;fontStyle=1" vertex="1" parent="1">
          <mxGeometry x="84.53" y="271" width="80" height="80" as="geometry" />
        </mxCell>
        <mxCell id="sckalah5oV4s6a0QUd7G-17" value="dbt" style="shape=image;verticalLabelPosition=bottom;labelBackgroundColor=default;verticalAlign=top;aspect=fixed;imageAspect=0;editableCssRules=.*;image=data:image/svg+xml,PHN2ZyB4bWxucz0iaHR0cDovL3d3dy53My5vcmcvMjAwMC9zdmciIHdpZHRoPSIyMy43NSIgaGVpZ2h0PSIyMy43NSIgaWQ9IkRidC1JY29uLS1TdHJlYW1saW5lLVN2Zy1Mb2dvcyIgdmlld0JveD0iMC4xMjUgMC4xMjUgMjMuNzUgMjMuNzUiIGZpbGw9Im5vbmUiPjxkZXNjPkRidCBJY29uIFN0cmVhbWxpbmUgSWNvbjogaHR0cHM6Ly9zdHJlYW1saW5laHEuY29tPC9kZXNjPjxwYXRoIHN0cm9rZS13aWR0aD0iMC4yNSIgZD0iTTIyLjc1MTM1IDEuMjI3Mzk3NUMyMy4zMDM3NzUgMS43NTg1OSAyMy42NjUgMi40NTk3NjUgMjMuNzUgMy4yMjQ2NzVjMCAwLjMxODcyNSAtMC4wODUgMC41MzEyIC0wLjI3NjIyNSAwLjkzNDkyNSAtMC4xOTEyMjUgMC40MDM3IC0yLjU0OTcyNSA0LjQ4MzI3NSAtMy4yNTA5IDUuNjA5NCAtMC40MDM3IDAuNjU4Njc1IC0wLjYxNjE3NSAxLjQ0NDg1IC0wLjYxNjE3NSAyLjIwOTc1IDAgMC43ODYxNzUgMC4yMTI0NzUgMS41NTExIDAuNjE2MTc1IDIuMjA5Nzc1IDAuNzAxMTc1IDEuMTI2MTI1IDMuMDU5Njc1IDUuMjI2OTI1IDMuMjUwOSA1LjYzMDY1QzIzLjY2NSAyMC4yMjI4NzUgMjMuNzUgMjAuNDE0MSAyMy43NSAyMC43MzI4Yy0wLjA4NSAwLjc2NDkyNSAtMC40MjQ5NSAxLjQ2NjEyNSAtMC45Nzc0IDEuOTc2MDc1IC0wLjUzMTIgMC41NTI0MjUgLTEuMjMyMzUgMC45MTM2NSAtMS45NzYwMjUgMC45NzczNzUgLTAuMzE4NzI1IDAgLTAuNTMxMiAtMC4wODQ5NzUgLTAuOTEzNjUgLTAuMjc2MjI1IC0wLjM4MjQ3NSAtMC4xOTEyMjUgLTQuNTQ3MDI1IC0yLjQ4NTk3NSAtNS42NzMxNzUgLTMuMTg3MTUgLTAuMDg0OTc1IC0wLjA0MjUgLTAuMTY5OTc1IC0wLjEwNjIyNSAtMC4yNzYyIC0wLjE0ODc1TDguMzY2NjUgMTYuNzgwNzI1YzAuMTI3NDc1IDEuMDYyNCAwLjU5NDkyNSAyLjA4MjMgMS4zNTk4MjUgMi44MjU5NzUgMC4xNDg3NSAwLjE0ODcyNSAwLjI5NzUgMC4yNzYyMjUgMC40Njc0NzUgMC40MDM3IC0wLjEyNzUgMC4wNjM3MjUgLTAuMjc2MjI1IDAuMTI3NSAtMC40MDM3IDAuMjEyNDc1IC0xLjEyNjE1IDAuNzAxMTc1IC01LjIyNjk1IDMuMDU5Njc1IC01LjYzMDY1IDMuMjUwOUMzLjc1NTg3NSAyMy42NjUgMy41NjQ2NSAyMy43NSAzLjIyNDY3NSAyMy43NWMtMC43NjQ5MSAtMC4wODUgLTEuNDY2MDg1IC0wLjQyNDk1IC0xLjk3NjAzMjUgLTAuOTc3NEMwLjY5NjIwMjUgMjIuMjQxNCAwLjMzNDk5IDIxLjU0MDI1IDAuMjUgMjAuNzc1MzI1YzAuMDIxMjQ3NSAtMC4zMTg3MjUgMC4xMDYyNCAtMC42Mzc0MjUgMC4yNzYyMjI1IC0wLjkxMzY1IDAuMTkxMjMgLTAuNDAzNzI1IDIuNTQ5NzI3NSAtNC41MDQ1NSAzLjI1MDkwMjUgLTUuNjMwNjc1IDAuNDAzNzI1IC0wLjY1ODY3NSAwLjYxNjE3NSAtMS40MjM2IDAuNjE2MTc1IC0yLjIwOTc1IDAgLTAuNzg2MTc1IC0wLjIxMjQ1IC0xLjU1MTEgLTAuNjE2MTc1IC0yLjIwOTc3NSAtMC43MDExNzUgLTEuMTY4NiAtMy4wODA5MjI1IC01LjI2OTQyNSAtMy4yNTA5MDI1IC01LjY3MzE1QzAuMzU2MjQgMy44NjIxIDAuMjcxMjQ3NSAzLjU0MzQgMC4yNSAzLjIyNDY3NWMwLjA4NDk5IC0wLjc2NDkxIDAuNDI0OTU1IC0xLjQ2NjA4NSAwLjk3NzM5NzUgLTEuOTk3Mjc3NUMxLjc1ODU5IDAuNjc0OTU1IDIuNDU5NzY1IDAuMzM0OTkgMy4yMjQ2NzUgMC4yNWMwLjMxODcyNSAwLjAyMTI0NzUgMC42Mzc0MjUgMC4xMDYyNCAwLjkzNDkyNSAwLjI3NjIyMjUgMC4zMzk5NSAwLjE0ODczMjUgMy4zMzU4NzUgMS44OTEwNDc1IDQuOTI5NDUgMi44MjU5NTI1bDAuMzYxMjI1IDAuMjEyNDc1YzAuMTI3NDc1IDAuMDg1IDAuMjMzNzI1IDAuMTQ4NzI1IDAuMzE4NzI1IDAuMTkxMjI1bDAuMTY5OTc1IDAuMTA2MjI1IDUuNjczMTI1IDMuMzU3MTc1Yy0wLjEyNzQ3NSAtMS4yNzQ4NzUgLTAuNzg2MTUgLTIuNDQzNTI1IC0xLjgwNjA1IC0zLjIyOTY3NSAwLjEyNzUgLTAuMDYzNzI1IDAuMjc2MjI1IC0wLjEyNzUgMC40MDM3IC0wLjIxMjQ3NSAxLjEyNjE1IC0wLjcwMTE3NSA1LjIyNjk1IC0zLjA4MDkyMjUgNS42MzA2NSAtMy4yNTA5MDI1IDAuMjc2MjUgLTAuMTY5OTgyNSAwLjU5NDk1IC0wLjI1NDk3NSAwLjkzNDkyNSAtMC4yNzYyMjI1IDAuNzQzNjc1IDAuMDg0OTkgMS40NDQ4NSAwLjQyNDk1NSAxLjk3NjAyNSAwLjk3NzM5NzVaTTEyLjI5NzQ1IDEzLjUwODZsMS4yMTExNSAtMS4yMTExNWMwLjE2OTk3NSAtMC4xNjk5NzUgMC4xNjk5NzUgLTAuNDI0OTI1IDAgLTAuNTk0OWwtMS4yMTExNSAtMS4yMTExNWMtMC4xNjk5NzUgLTAuMTY5OTc1IC0wLjQyNDkyNSAtMC4xNjk5NzUgLTAuNTk0OSAwbC0xLjIxMTE1IDEuMjExMTVjLTAuMTY5OTc1IDAuMTY5OTc1IC0wLjE2OTk3NSAwLjQyNDkyNSAwIDAuNTk0OWwxLjIxMTE1IDEuMjExMTVjMC4xNDg3MjUgMC4xNDg3MjUgMC40MjQ5MjUgMC4xNDg3MjUgMC41OTQ5IDBaIiBmaWxsPSIjZmY2OTRhIi8+PC9zdmc+;fontStyle=1" vertex="1" parent="1">
          <mxGeometry x="85.46000000000001" y="411" width="80" height="80" as="geometry" />
        </mxCell>
        <mxCell id="sckalah5oV4s6a0QUd7G-22" value="HTTP" style="edgeStyle=orthogonalEdgeStyle;rounded=0;orthogonalLoop=1;jettySize=auto;html=1;entryX=0;entryY=0.5;entryDx=0;entryDy=0;entryPerimeter=0;fontStyle=1" edge="1" parent="1" source="sckalah5oV4s6a0QUd7G-19" target="sckalah5oV4s6a0QUd7G-3">
          <mxGeometry x="-0.0396" y="-11" relative="1" as="geometry">
            <mxPoint as="offset" />
          </mxGeometry>
        </mxCell>
      </root>
    </mxGraphModel>
  </diagram>
</mxfile>
